<svg width="4674" height="2304" viewBox="0 0 4674 2304" fill="none" xmlns="http://www.w3.org/2000/svg">
<path d="M189.784 1360V1102.7H88.312V1042.9H364.642V1102.7H263.17V1360H189.784ZM426.324 1360V1116.29H496.992V1360H426.324ZM461.658 1082.31C448.672 1082.31 438.102 1078.54 429.948 1070.99C421.794 1063.44 417.717 1054.07 417.717 1042.9C417.717 1031.73 421.794 1022.36 429.948 1014.81C438.102 1007.26 448.672 1003.49 461.658 1003.49C474.644 1003.49 485.214 1007.11 493.368 1014.36C501.522 1021.31 505.599 1030.37 505.599 1041.54C505.599 1053.32 501.522 1063.13 493.368 1070.99C485.516 1078.54 474.946 1082.31 461.658 1082.31ZM589.758 1360V1023.87H660.426V1360H589.758ZM835.185 1363.62C814.347 1363.62 794.264 1361.21 774.936 1356.38C755.91 1351.24 740.81 1344.9 729.636 1337.35L753.192 1286.61C764.366 1293.56 777.503 1299.3 792.603 1303.83C808.005 1308.06 823.105 1310.17 837.903 1310.17C854.211 1310.17 865.687 1308.21 872.331 1304.28C879.277 1300.35 882.75 1294.92 882.75 1287.97C882.75 1282.23 880.032 1278.01 874.596 1275.29C869.462 1272.27 862.516 1270 853.758 1268.49C845 1266.98 835.336 1265.47 824.766 1263.96C814.498 1262.45 804.079 1260.49 793.509 1258.07C782.939 1255.36 773.275 1251.43 764.517 1246.3C755.759 1241.16 748.662 1234.22 743.226 1225.46C738.092 1216.7 735.525 1205.38 735.525 1191.48C735.525 1176.08 739.904 1162.49 748.662 1150.71C757.722 1138.94 770.708 1129.72 787.62 1123.08C804.532 1116.13 824.766 1112.66 848.322 1112.66C864.932 1112.66 881.844 1114.47 899.058 1118.1C916.272 1121.72 930.617 1127.01 942.093 1133.95L918.537 1184.24C906.759 1177.29 894.83 1172.61 882.75 1170.19C870.972 1167.47 859.496 1166.12 848.322 1166.12C832.618 1166.12 821.142 1168.23 813.894 1172.46C806.646 1176.69 803.022 1182.12 803.022 1188.77C803.022 1194.81 805.589 1199.34 810.723 1202.36C816.159 1205.38 823.256 1207.79 832.014 1209.6C840.772 1211.42 850.285 1213.08 860.553 1214.59C871.123 1215.79 881.693 1217.76 892.263 1220.48C902.833 1223.19 912.346 1227.12 920.802 1232.25C929.56 1237.09 936.657 1243.88 942.093 1252.64C947.529 1261.09 950.247 1272.27 950.247 1286.16C950.247 1301.26 945.717 1314.7 936.657 1326.48C927.597 1337.95 914.46 1347.01 897.246 1353.66C880.334 1360.3 859.647 1363.62 835.185 1363.62ZM1021.03 1360V1116.29H1091.7V1360H1021.03ZM1056.36 1082.31C1043.38 1082.31 1032.81 1078.54 1024.65 1070.99C1016.5 1063.44 1012.42 1054.07 1012.42 1042.9C1012.42 1031.73 1016.5 1022.36 1024.65 1014.81C1032.81 1007.26 1043.38 1003.49 1056.36 1003.49C1069.35 1003.49 1079.92 1007.11 1088.07 1014.36C1096.23 1021.31 1100.3 1030.37 1100.3 1041.54C1100.3 1053.32 1096.23 1063.13 1088.07 1070.99C1080.22 1078.54 1069.65 1082.31 1056.36 1082.31ZM1496.58 1112.66C1515.91 1112.66 1532.97 1116.59 1547.77 1124.44C1562.87 1131.99 1574.65 1143.77 1583.1 1159.77C1591.86 1175.48 1596.24 1195.71 1596.24 1220.48V1360H1525.57V1231.35C1525.57 1211.72 1521.49 1197.22 1513.34 1187.86C1505.19 1178.5 1493.71 1173.82 1478.91 1173.82C1468.64 1173.82 1459.43 1176.23 1451.28 1181.06C1443.13 1185.59 1436.78 1192.54 1432.25 1201.9C1427.72 1211.26 1425.46 1223.19 1425.46 1237.69V1360H1354.79V1231.35C1354.79 1211.72 1350.71 1197.22 1342.56 1187.86C1334.71 1178.5 1323.38 1173.82 1308.58 1173.82C1298.32 1173.82 1289.11 1176.23 1280.95 1181.06C1272.8 1185.59 1266.46 1192.54 1261.93 1201.9C1257.4 1211.26 1255.13 1223.19 1255.13 1237.69V1360H1184.46V1116.29H1251.96V1182.88L1239.28 1163.4C1247.73 1146.79 1259.66 1134.25 1275.06 1125.8C1290.77 1117.04 1308.58 1112.66 1328.52 1112.66C1350.86 1112.66 1370.34 1118.4 1386.95 1129.88C1403.87 1141.05 1415.04 1158.26 1420.48 1181.52L1395.56 1174.72C1403.71 1155.7 1416.7 1140.6 1434.52 1129.42C1452.64 1118.25 1473.33 1112.66 1496.58 1112.66ZM1836.25 1360V1312.43L1831.72 1302.02V1216.85C1831.72 1201.75 1827.04 1189.97 1817.68 1181.52C1808.62 1173.06 1794.58 1168.83 1775.55 1168.83C1762.56 1168.83 1749.73 1170.95 1737.04 1175.18C1724.66 1179.1 1714.09 1184.54 1705.33 1191.48L1679.97 1142.11C1693.25 1132.74 1709.26 1125.5 1727.98 1120.36C1746.71 1115.23 1765.73 1112.66 1785.06 1112.66C1822.21 1112.66 1851.05 1121.42 1871.59 1138.94C1892.12 1156.45 1902.39 1183.78 1902.39 1220.93V1360H1836.25ZM1761.96 1363.62C1742.93 1363.62 1726.63 1360.45 1713.04 1354.11C1699.45 1347.47 1689.03 1338.56 1681.78 1327.38C1674.53 1316.21 1670.91 1303.68 1670.91 1289.78C1670.91 1275.29 1674.38 1262.6 1681.33 1251.73C1688.57 1240.86 1699.9 1232.4 1715.3 1226.36C1730.7 1220.02 1750.79 1216.85 1775.55 1216.85H1840.33V1258.07H1783.25C1766.64 1258.07 1755.16 1260.79 1748.82 1266.23C1742.78 1271.66 1739.76 1278.46 1739.76 1286.61C1739.76 1295.67 1743.24 1302.92 1750.18 1308.36C1757.43 1313.49 1767.24 1316.06 1779.63 1316.06C1791.4 1316.06 1801.97 1313.34 1811.34 1307.9C1820.7 1302.17 1827.49 1293.86 1831.72 1282.99L1842.59 1315.61C1837.46 1331.31 1828.1 1343.24 1814.51 1351.39C1800.92 1359.55 1783.4 1363.62 1761.96 1363.62ZM2093.19 1363.62C2064.5 1363.62 2042.15 1356.38 2026.14 1341.88C2010.14 1327.08 2002.13 1305.19 2002.13 1276.19V1062.38H2072.8V1275.29C2072.8 1285.56 2075.52 1293.56 2080.96 1299.3C2086.39 1304.73 2093.79 1307.45 2103.15 1307.45C2114.33 1307.45 2123.84 1304.43 2131.69 1298.39L2150.72 1348.22C2143.47 1353.36 2134.71 1357.28 2124.44 1360C2114.48 1362.42 2104.06 1363.62 2093.19 1363.62ZM1964.54 1176.08V1121.72H2133.5V1176.08H1964.54ZM82.423 1912L223.759 1594.9H296.239L438.028 1912H361.018L245.05 1632.05H274.042L157.621 1912H82.423ZM153.091 1844.05L172.57 1788.33H335.65L355.582 1844.05H153.091ZM305.752 1566.81C296.994 1566.81 289.595 1563.94 283.555 1558.21C277.515 1552.47 274.495 1544.92 274.495 1535.56C274.495 1526.19 277.515 1518.64 283.555 1512.91C289.595 1507.17 296.994 1504.3 305.752 1504.3C314.51 1504.3 321.909 1507.17 327.949 1512.91C334.291 1518.64 337.462 1526.19 337.462 1535.56C337.462 1544.92 334.291 1552.47 327.949 1558.21C321.909 1563.94 314.51 1566.81 305.752 1566.81ZM214.246 1566.81C205.488 1566.81 197.938 1563.94 191.596 1558.21C185.556 1552.47 182.536 1544.92 182.536 1535.56C182.536 1526.19 185.556 1518.64 191.596 1512.91C197.938 1507.17 205.488 1504.3 214.246 1504.3C223.004 1504.3 230.403 1507.17 236.443 1512.91C242.483 1518.64 245.503 1526.19 245.503 1535.56C245.503 1544.92 242.483 1552.47 236.443 1558.21C230.403 1563.94 223.004 1566.81 214.246 1566.81ZM493.124 1912V1575.87H563.792V1912H493.124ZM777.509 1915.62C749.725 1915.62 725.263 1910.19 704.123 1899.32C683.285 1888.44 667.128 1873.65 655.652 1854.92C644.176 1835.9 638.438 1814.3 638.438 1790.14C638.438 1765.68 644.025 1744.09 655.199 1725.36C666.675 1706.34 682.228 1691.54 701.858 1680.97C721.488 1670.1 743.685 1664.66 768.449 1664.66C792.307 1664.66 813.749 1669.8 832.775 1680.06C852.103 1690.03 867.354 1704.53 878.528 1723.55C889.702 1742.28 895.289 1764.77 895.289 1791.05C895.289 1793.77 895.138 1796.94 894.836 1800.56C894.534 1803.88 894.232 1807.05 893.93 1810.07H695.969V1768.85H856.784L829.604 1781.08C829.604 1768.4 827.037 1757.38 821.903 1748.01C816.769 1738.65 809.672 1731.4 800.612 1726.27C791.552 1720.83 780.982 1718.12 768.902 1718.12C756.822 1718.12 746.101 1720.83 736.739 1726.27C727.679 1731.4 720.582 1738.8 715.448 1748.47C710.314 1757.83 707.747 1769 707.747 1781.99V1792.86C707.747 1806.15 710.616 1817.93 716.354 1828.19C722.394 1838.16 730.699 1845.86 741.269 1851.3C752.141 1856.43 764.825 1859 779.321 1859C792.307 1859 803.632 1857.04 813.296 1853.11C823.262 1849.18 832.322 1843.29 840.476 1835.44L878.075 1876.21C866.901 1888.9 852.858 1898.71 835.946 1905.66C819.034 1912.3 799.555 1915.62 777.509 1915.62ZM1281.63 1664.66C1300.96 1664.66 1318.03 1668.59 1332.82 1676.44C1347.92 1683.99 1359.7 1695.77 1368.16 1711.77C1376.92 1727.48 1381.29 1747.71 1381.29 1772.48V1912H1310.63V1783.35C1310.63 1763.72 1306.55 1749.22 1298.4 1739.86C1290.24 1730.5 1278.77 1725.82 1263.97 1725.82C1253.7 1725.82 1244.49 1728.23 1236.33 1733.06C1228.18 1737.59 1221.84 1744.54 1217.31 1753.9C1212.78 1763.26 1210.51 1775.19 1210.51 1789.69V1912H1139.85V1783.35C1139.85 1763.72 1135.77 1749.22 1127.61 1739.86C1119.76 1730.5 1108.44 1725.82 1093.64 1725.82C1083.37 1725.82 1074.16 1728.23 1066.01 1733.06C1057.85 1737.59 1051.51 1744.54 1046.98 1753.9C1042.45 1763.26 1040.19 1775.19 1040.19 1789.69V1912H969.517V1668.29H1037.01V1734.88L1024.33 1715.4C1032.79 1698.79 1044.72 1686.25 1060.12 1677.8C1075.82 1669.04 1093.64 1664.66 1113.57 1664.66C1135.92 1664.66 1155.4 1670.4 1172.01 1681.88C1188.92 1693.05 1200.09 1710.26 1205.53 1733.52L1180.62 1726.72C1188.77 1707.7 1201.76 1692.6 1219.57 1681.42C1237.69 1670.25 1258.38 1664.66 1281.63 1664.66ZM1471.82 1912V1668.29H1542.48V1912H1471.82ZM1507.15 1634.31C1494.16 1634.31 1483.59 1630.54 1475.44 1622.99C1467.29 1615.44 1463.21 1606.07 1463.21 1594.9C1463.21 1583.73 1467.29 1574.36 1475.44 1566.81C1483.59 1559.26 1494.16 1555.49 1507.15 1555.49C1520.14 1555.49 1530.71 1559.11 1538.86 1566.36C1547.01 1573.31 1551.09 1582.37 1551.09 1593.54C1551.09 1605.32 1547.01 1615.13 1538.86 1622.99C1531.01 1630.54 1520.44 1634.31 1507.15 1634.31Z" fill="white"/>
<path d="M208.039 507.456L241.512 291.379C241.687 290.25 243.313 290.25 243.488 291.379L276.961 507.454C277.027 507.88 277.358 508.215 277.782 508.287L483.638 543.176C484.712 543.358 484.761 544.884 483.701 545.135L277.718 593.847C277.326 593.94 277.028 594.258 276.962 594.655L243.486 794.124C243.299 795.236 241.701 795.236 241.514 794.124L208.038 594.652C207.972 594.257 207.675 593.939 207.286 593.845L4.7159 545.134C3.65953 544.88 3.70917 543.361 4.77987 543.176L207.22 508.289C207.643 508.216 207.973 507.881 208.039 507.456Z" fill="white"/>
<path d="M1296.54 222.456L1330.01 6.37915C1330.19 5.24993 1331.81 5.24993 1331.99 6.37914L1365.46 222.454C1365.53 222.88 1365.86 223.215 1366.28 223.287L1572.14 258.176C1573.21 258.358 1573.26 259.884 1572.2 260.135L1366.22 308.847C1365.83 308.94 1365.53 309.258 1365.46 309.655L1331.99 509.124C1331.8 510.236 1330.2 510.236 1330.01 509.124L1296.54 309.652C1296.47 309.257 1296.18 308.939 1295.79 308.845L1093.22 260.134C1092.16 259.88 1092.21 258.361 1093.28 258.176L1295.72 223.289C1296.14 223.216 1296.47 222.881 1296.54 222.456Z" fill="white"/>
<path d="M1922.54 602.456L1956.01 386.379C1956.19 385.25 1957.81 385.25 1957.99 386.379L1991.46 602.454C1991.53 602.88 1991.86 603.215 1992.28 603.287L2198.14 638.176C2199.21 638.358 2199.26 639.884 2198.2 640.135L1992.22 688.847C1991.83 688.94 1991.53 689.258 1991.46 689.655L1957.99 889.124C1957.8 890.236 1956.2 890.236 1956.01 889.124L1922.54 689.652C1922.47 689.257 1922.18 688.939 1921.79 688.845L1719.22 640.134C1718.16 639.88 1718.21 638.361 1719.28 638.176L1921.72 603.289C1922.14 603.216 1922.47 602.881 1922.54 602.456Z" fill="white"/>
<path d="M2606.02 1088.79L2809.53 1008.83C2810.59 1008.41 2811.41 1009.81 2810.52 1010.53L2640.75 1148.32C2640.41 1148.59 2640.29 1149.05 2640.44 1149.45L2714.03 1344.84C2714.42 1345.86 2713.12 1346.67 2712.37 1345.88L2566.5 1192.51C2566.23 1192.22 2565.8 1192.12 2565.43 1192.26L2376.26 1263.85C2375.21 1264.25 2374.4 1262.87 2375.27 1262.15L2530.7 1132.72C2531.01 1132.47 2531.13 1132.05 2531.02 1131.67L2471.02 932.149C2470.71 931.109 2472.05 930.386 2472.75 931.218L2604.89 1088.5C2605.16 1088.83 2605.62 1088.95 2606.02 1088.79Z" fill="white"/>
<path d="M4276.03 1126.33L4180.44 929.673C4179.94 928.646 4181.28 927.719 4182.06 928.547L4332.67 1087.06C4332.97 1087.38 4333.43 1087.46 4333.82 1087.28L4522.88 998.681C4523.87 998.219 4524.78 999.445 4524.05 1000.26L4382.51 1157.64C4382.24 1157.93 4382.17 1158.37 4382.35 1158.73L4468.47 1341.74C4468.95 1342.76 4467.63 1343.67 4466.85 1342.86L4325.7 1197.99C4325.42 1197.7 4324.99 1197.61 4324.62 1197.76L4130.39 1273.12C4129.37 1273.52 4128.55 1272.24 4129.32 1271.48L4275.83 1127.48C4276.13 1127.18 4276.21 1126.71 4276.03 1126.33Z" fill="white"/>
<path d="M3895.99 1916.88L4101.42 1842C4102.49 1841.6 4103.28 1843.03 4102.37 1843.73L3929.23 1977.25C3928.89 1977.52 3928.75 1977.97 3928.89 1978.37L3997.6 2175.54C3997.96 2176.57 3996.65 2177.34 3995.92 2176.54L3853.91 2019.58C3853.64 2019.28 3853.22 2019.17 3852.84 2019.31L3661.95 2086.18C3660.89 2086.55 3660.12 2085.15 3661 2084.45L3819.6 1958.93C3819.91 1958.68 3820.05 1958.27 3819.94 1957.88L3764.93 1756.93C3764.64 1755.88 3765.99 1755.19 3766.67 1756.04L3894.86 1916.56C3895.13 1916.9 3895.58 1917.02 3895.99 1916.88Z" fill="white"/>
<path d="M2619.3 1796.17L2804.03 1679.18C2804.99 1678.57 2806.06 1679.79 2805.33 1680.67L2664.66 1848.07C2664.39 1848.4 2664.35 1848.87 2664.58 1849.23L2773.78 2027.19C2774.35 2028.12 2773.23 2029.16 2772.35 2028.53L2600.11 1905.49C2599.79 1905.26 2599.35 1905.24 2599.01 1905.45L2426.79 2011.52C2425.83 2012.11 2424.78 2010.91 2425.49 2010.03L2553.65 1853.56C2553.91 1853.25 2553.95 1852.81 2553.76 1852.46L2457.13 1667.88C2456.63 1666.92 2457.8 1665.96 2458.65 1666.64L2618.14 1796.11C2618.47 1796.38 2618.94 1796.4 2619.3 1796.17Z" fill="white"/>
<path d="M229.5 551L1331.58 257.611C1331.85 257.54 1332.13 257.582 1332.37 257.727L1956 643.5L2580 1141M2580 1141L2619.95 1850.15C2619.98 1850.64 2620.36 1851.04 2620.85 1851.09L3882.82 1983.93C3883.23 1983.97 3883.62 1983.76 3883.81 1983.4L4321.24 1142.46C4321.59 1141.8 4321.1 1141 4320.35 1141H2580Z" stroke="white" stroke-width="19"/>
</svg>
