<?xml version="1.0" encoding="utf-8"?>
<!-- Generator: Adobe Illustrator 25.2.1, SVG Export Plug-In . SVG Version: 6.00 Build 0)  -->
<svg version="1.1" id="Vrstva_1" xmlns="http://www.w3.org/2000/svg" xmlns:xlink="http://www.w3.org/1999/xlink" x="0px" y="0px"
	 viewBox="0 0 789.1 526.1" style="enable-background:new 0 0 789.1 526.1;" xml:space="preserve">
<style type="text/css">
	.st0{fill:#E71B24;}
	.st1{fill:#F7F700;}
</style>
<g>
	<rect class="st0" width="789.1" height="526.1"/>
	<g>
		<polygon class="st1" points="101.9,44.7 115.5,86.1 159,86.3 124,112 137.2,153.5 101.9,128 66.6,153.5 79.8,112 44.7,86.3 
			88.2,86.1 		"/>
		<g>
			<polygon class="st1" points="221.3,134.5 225,145.8 236.9,145.9 227.3,152.9 230.9,164.2 221.3,157.3 211.6,164.2 215.2,152.9 
				205.7,145.9 217.5,145.8 			"/>
			<polygon class="st1" points="210.8,70.8 221.4,76.1 229.8,67.8 228,79.5 238.6,85 226.9,86.9 225,98.6 219.5,88.1 207.7,89.9 
				216.1,81.4 			"/>
			<polygon class="st1" points="186.5,174.4 181.1,185 189.5,193.5 177.7,191.7 172.3,202.2 170.4,190.5 158.6,188.6 169.2,183.1 
				167.4,171.4 175.9,179.7 			"/>
			<polygon class="st1" points="161.7,32.8 172.3,38.1 180.7,29.8 178.9,41.5 189.5,47 177.8,48.9 175.8,60.6 170.4,50.1 
				158.6,51.9 167,43.4 			"/>
		</g>
	</g>
</g>
</svg>
